<svg version="1.0" xmlns="http://www.w3.org/2000/svg" width="800.000000" height="800.000000" viewBox="0 0 800.000000 800.000000" preserveAspectRatio="xMidYMid meet">
  <metadata>
    <rdf:RDF xmlns:rdf="http://www.w3.org/1999/02/22-rdf-syntax-ns#" xmlns:rdfs="http://www.w3.org/2000/01/rdf-schema#" xmlns:dc="http://purl.org/dc/elements/1.1/">
      <rdf:Description dc:format="image/svg+xml" dc:Label="1" dc:ContentProducer="001191330110MACRLGPT8B00000" dc:ProduceID="305166565" dc:ReservedCode1="5CTB+uNvzGy146vD8+4SkqxGHNkrFDcglNT2X1PRD+Q=" dc:ContentPropagator="001191330110MACRLGPT8B00000" dc:PropagateID="305166565" dc:ReservedCode2="5CTB+uNvzGy146vD8+4SkqxGHNkrFDcglNT2X1PRD+Q="/>
    </rdf:RDF>
  </metadata>
  <g transform="translate(61.959180,737.962776) scale(0.084464,-0.084464)" fill="#000000" stroke="none">
    <path d="M3734 6474 c-54 -17 -135 -72 -167 -115 -10 -15 -39 -96 -64 -180 -24 -84 -49 -165 -56 -179 l-12 -25 -380 -5 c-365 -5 -382 -6 -436 -28 -163 -66 -243 -229 -198 -402 3 -13 -17 -15 -133 -18 -134 -3 -137 -3 -157 -29 -28 -35 -27 -78 4 -108 l24 -25 1845 0 c1703 0 1846 1 1861 17 29 29 36 61 21 98 -18 42 -27 44 -181 48 -114 2 -120 3 -115 22 3 11 5 56 5 100 0 65 -5 90 -25 130 -31 65 -101 132 -170 164 l-55 26 -389 5 -389 5 -19 55 c-10 30 -34 111 -54 180 -44 152 -71 191 -171 241 l-68 34 -235 2 c-188 2 -245 -1 -286 -13z m511 -168 c46 -20 60 -45 100 -182 20 -66 38 -127 41 -136 5 -17 -18 -18 -380 -18 -212 0 -386 2 -386 4 0 20 81 281 92 293 7 9 27 24 43 35 27 16 54 18 243 18 161 0 221 -3 247 -14z m1093 -525 c48 -25 77 -57 91 -103 15 -47 5 -100 -25 -133 l-23 -25 -1382 2 -1381 3 -19 23 c-42 53 -34 145 18 194 65 62 -35 58 1386 58 1256 0 1299 -1 1335 -19z"/>
    <path d="M2533 4995 c-39 -5 -74 -13 -78 -17 -6 -5 1 -139 20 -413 3 -38 9 -140 15 -225 5 -85 14 -225 20 -310 11 -174 45 -714 60 -950 5 -85 16 -249 25 -365 8 -115 26 -382 39 -591 24 -375 25 -383 52 -439 31 -63 83 -113 153 -147 l46 -23 1120 0 1120 0 50 25 c67 33 130 99 153 163 21 56 21 51 57 617 14 212 27 417 30 455 3 39 14 210 25 380 11 171 29 452 40 625 11 173 22 342 24 375 3 33 8 110 11 170 3 61 8 133 10 160 3 28 9 136 15 240 6 105 12 206 13 225 l2 35 -61 7 c-34 3 -70 8 -80 10 -23 4 -23 0 -53 -492 -12 -190 -35 -541 -51 -780 -16 -239 -36 -550 -45 -690 -8 -140 -24 -388 -35 -550 -11 -162 -26 -390 -34 -507 -12 -186 -16 -215 -34 -241 -47 -66 21 -62 -1159 -62 -997 0 -1070 1 -1102 18 -68 34 -73 51 -88 269 -7 109 -22 326 -33 483 -23 335 -36 522 -50 755 -5 94 -23 368 -39 610 -17 242 -39 595 -51 785 -11 190 -24 359 -28 375 l-7 30 -72 -10z"/>
    <path d="M3372 4483 c-7 -3 -19 -18 -28 -35 -13 -25 -15 -54 -10 -172 13 -286 16 -379 26 -741 9 -330 14 -481 36 -1050 4 -121 9 -155 23 -175 37 -52 101 -50 136 4 15 22 15 47 6 238 -6 117 -18 447 -26 733 -8 286 -20 664 -27 840 -11 311 -12 320 -34 342 -22 22 -69 29 -102 16z"/>
    <path d="M3945 4465 l-25 -24 0 -1061 c0 -1042 0 -1060 20 -1080 43 -43 118 -33 139 18 8 19 11 331 9 1080 l-3 1054 -24 19 c-33 27 -86 25 -116 -6z"/>
    <path d="M4535 4465 c-22 -21 -25 -34 -26 -97 -1 -40 -3 -86 -4 -103 -3 -38 -13 -325 -25 -750 -5 -181 -12 -393 -15 -470 -3 -77 -10 -267 -16 -422 -9 -250 -9 -284 5 -312 28 -53 105 -52 140 2 15 23 19 121 61 1422 23 751 24 699 -4 729 -33 35 -83 35 -116 1z"/>
  </g>
</svg>