<svg version="1.0" xmlns="http://www.w3.org/2000/svg" width="800.000000" height="800.000000" viewBox="0 0 800.000000 800.000000" preserveAspectRatio="xMidYMid meet">
  <metadata>
    <rdf:RDF xmlns:rdf="http://www.w3.org/1999/02/22-rdf-syntax-ns#" xmlns:rdfs="http://www.w3.org/2000/01/rdf-schema#" xmlns:dc="http://purl.org/dc/elements/1.1/">
      <rdf:Description dc:format="image/svg+xml" dc:Label="1" dc:ContentProducer="001191330110MACRLGPT8B00000" dc:ProduceID="304769089" dc:ReservedCode1="eGhQg0UvUDVKan3sf92ipPkncbV5lElub3ulHUsi6Dk=" dc:ContentPropagator="001191330110MACRLGPT8B00000" dc:PropagateID="304769089" dc:ReservedCode2="eGhQg0UvUDVKan3sf92ipPkncbV5lElub3ulHUsi6Dk="/>
    </rdf:RDF>
  </metadata>
  <g transform="translate(0.000000,800.000000) scale(0.100000,-0.100000)" fill="#000000" stroke="none">
    <path d="M3740 5875 c-564 -73 -1066 -361 -1399 -802 -99 -132 -171 -260 -171 -306 0 -68 87 -103 133 -53 12 13 45 63 72 111 168 293 487 574 826 728 299 136 666 199 979 167 521 -52 989 -301 1311 -696 61 -74 145 -197 174 -254 42 -84 101 -105 150 -55 41 40 33 76 -38 191 -214 341 -483 589 -824 758 -212 106 -368 158 -589 197 -154 27 -470 34 -624 14z"/>
    <path d="M3769 5095 c-355 -56 -643 -206 -894 -466 -551 -572 -549 -1479 4 -2053 181 -187 408 -326 664 -405 245 -75 601 -82 857 -16 495 126 903 499 1061 970 60 178 73 261 73 475 1 147 -3 216 -17 281 -146 721 -780 1233 -1520 1228 -78 -1 -181 -7 -228 -14z m502 -176 c487 -96 884 -441 1038 -904 44 -131 61 -247 61 -409 0 -163 -18 -282 -62 -411 -184 -541 -673 -900 -1253 -922 -403 -15 -765 126 -1042 405 -259 262 -394 607 -380 977 6 161 24 261 74 395 66 179 164 335 300 475 165 171 359 290 584 358 224 68 458 80 680 36z"/>
    <path d="M3941 4524 c-20 -26 -21 -38 -21 -368 l0 -342 -65 -28 c-206 -89 -276 -363 -141 -547 96 -130 300 -178 449 -105 203 99 261 375 117 554 -36 46 -112 99 -157 111 -25 6 -29 14 -35 57 -3 27 -7 185 -7 352 -1 288 -2 303 -21 322 -31 31 -93 27 -119 -6z m147 -893 c47 -24 77 -56 97 -103 22 -53 19 -97 -11 -156 -30 -61 -64 -88 -130 -103 -125 -29 -233 63 -234 197 0 135 155 228 278 165z"/>
  </g>
</svg>