<svg version="1.0" xmlns="http://www.w3.org/2000/svg" width="800.000000" height="800.000000" viewBox="0 0 800.000000 800.000000" preserveAspectRatio="xMidYMid meet">
  <metadata>
    <rdf:RDF xmlns:rdf="http://www.w3.org/1999/02/22-rdf-syntax-ns#" xmlns:rdfs="http://www.w3.org/2000/01/rdf-schema#" xmlns:dc="http://purl.org/dc/elements/1.1/">
      <rdf:Description dc:format="image/svg+xml" dc:Label="1" dc:ContentProducer="001191330110MACRLGPT8B00000" dc:ProduceID="304774729" dc:ReservedCode1="GWlCguanQ9ogUB5AufY8c3Xs0wjOYavIPuAFkFe2Zdc=" dc:ContentPropagator="001191330110MACRLGPT8B00000" dc:PropagateID="304774729" dc:ReservedCode2="GWlCguanQ9ogUB5AufY8c3Xs0wjOYavIPuAFkFe2Zdc="/>
    </rdf:RDF>
  </metadata>
  <g transform="translate(0.000000,800.000000) scale(0.100000,-0.100000)" fill="#000000" stroke="none">
    <path d="M3735 6065 c-18 -17 -25 -35 -25 -62 0 -36 10 -48 223 -258 615 -608 973 -960 1280 -1260 185 -181 336 -332 335 -336 -2 -5 -84 -86 -183 -181 -221 -211 -666 -640 -875 -843 -276 -268 -664 -640 -713 -685 -81 -74 -94 -118 -51 -169 21 -25 33 -31 65 -31 37 0 48 8 162 117 212 204 356 343 547 528 224 218 686 664 983 950 121 115 225 222 233 237 18 35 18 121 0 157 -8 15 -83 94 -168 177 -396 387 -648 634 -947 929 -178 176 -331 327 -341 335 -9 8 -109 106 -222 218 -192 189 -207 202 -242 202 -26 0 -44 -7 -61 -25z"/>
    <path d="M2045 6015 c-18 -17 -25 -35 -25 -62 0 -33 8 -45 63 -98 34 -33 399 -386 811 -785 413 -399 794 -767 848 -819 54 -52 97 -97 96 -101 -2 -3 -160 -157 -353 -340 -1176 -1121 -1512 -1448 -1517 -1474 -6 -32 15 -82 41 -95 11 -6 34 -11 51 -11 35 0 23 -10 420 369 124 119 275 263 335 321 61 58 171 163 245 235 256 247 605 581 767 734 89 84 171 167 183 185 23 39 26 105 6 144 -8 15 -146 155 -308 312 -161 156 -374 363 -473 460 -191 185 -258 250 -695 670 -416 400 -393 380 -435 380 -25 0 -43 -8 -60 -25z"/>
  </g>
</svg>