<svg version="1.0" xmlns="http://www.w3.org/2000/svg" width="800.000000" height="800.000000" viewBox="0 0 800.000000 800.000000" preserveAspectRatio="xMidYMid meet">
  <metadata>
    <rdf:RDF xmlns:rdf="http://www.w3.org/1999/02/22-rdf-syntax-ns#" xmlns:rdfs="http://www.w3.org/2000/01/rdf-schema#" xmlns:dc="http://purl.org/dc/elements/1.1/">
      <rdf:Description dc:format="image/svg+xml" dc:Label="1" dc:ContentProducer="001191330110MACRLGPT8B00000" dc:ProduceID="304782220" dc:ReservedCode1="VmNIzwycgBzPL378yV8UnBjCxgWUOn2Dc/nRv00spn0=" dc:ContentPropagator="001191330110MACRLGPT8B00000" dc:PropagateID="304782220" dc:ReservedCode2="VmNIzwycgBzPL378yV8UnBjCxgWUOn2Dc/nRv00spn0="/>
    </rdf:RDF>
  </metadata>
  <g transform="translate(70.674157,649.101124) scale(0.067416,-0.067416)" fill="#000000" stroke="none">
    <path d="M1795 6695 l-25 -24 0 -1721 0 -1721 25 -24 24 -25 3091 0 3090 0 0 65 0 65 -2417 2 -2418 3 -3 1638 -2 1637 225 0 225 0 0 -1037 c1 -1099 -1 -1056 47 -1081 29 -16 3824 -17 3854 -2 49 27 49 28 49 654 l0 586 -27 30 -28 31 -1881 -1 -1881 0 -7 92 c-3 50 -6 253 -6 450 l0 359 -25 24 -24 25 -931 0 -931 0 -24 -25z m1245 -285 l0 -180 -254 0 c-252 0 -255 0 -270 -22 -23 -33 -20 -74 6 -92 19 -14 62 -16 270 -16 l248 0 0 -134 0 -134 -32 -5 c-18 -2 -74 -2 -125 1 -115 6 -143 -7 -143 -67 0 -60 14 -66 164 -66 l131 0 0 -165 0 -165 -259 -3 c-224 -2 -262 -5 -278 -19 -24 -21 -23 -68 2 -93 19 -19 33 -20 280 -20 l260 0 0 -169 0 -170 -236 -3 c-220 -3 -237 -4 -250 -22 -20 -29 -17 -70 7 -92 17 -16 37 -19 108 -19 47 0 150 -2 229 -3 l142 -2 0 -105 0 -105 -62 0 c-72 0 -98 -17 -98 -65 0 -53 19 -68 94 -73 l66 -4 0 -104 0 -104 -209 0 -210 0 -21 -27 c-15 -19 -19 -35 -15 -53 13 -50 15 -50 229 -50 110 0 207 -4 214 -8 9 -7 12 -49 10 -178 l-3 -169 -209 -3 c-178 -2 -213 -5 -228 -19 -24 -21 -23 -68 2 -93 19 -19 33 -20 230 -20 l210 0 0 -130 0 -130 -570 0 -570 0 0 1640 0 1640 570 0 570 0 0 -180z m4390 -1295 l0 -525 -1844 0 c-1672 0 -1844 1 -1850 16 -8 21 -8 963 0 1003 l7 31 1843 0 1844 0 0 -525z"/>
    <path d="M1931 2543 c-21 -26 -21 -27 -19 -928 3 -872 4 -904 22 -924 l19 -21 2748 0 2748 0 15 22 c14 20 16 125 16 929 l0 908 -26 20 -27 21 -2738 0 -2738 0 -20 -27z m569 -342 c0 -237 0 -240 22 -255 31 -22 64 -20 88 4 19 19 20 33 20 255 l0 235 178 -2 177 -3 5 -233 c5 -255 5 -252 67 -252 59 0 63 17 63 267 l0 223 175 0 175 0 0 -229 c0 -195 2 -232 16 -245 26 -27 71 -24 97 6 15 18 17 45 17 244 l0 224 180 0 180 0 0 -222 c0 -192 2 -224 17 -240 24 -27 68 -23 92 8 20 25 21 39 21 241 l0 213 178 -2 177 -3 2 -235 c3 -225 4 -236 24 -252 23 -20 56 -23 79 -8 12 8 16 51 20 252 l5 243 177 3 176 2 8 -67 c4 -37 4 -142 0 -234 -7 -161 -6 -169 13 -188 12 -12 33 -21 49 -21 57 0 57 -1 62 262 l5 243 180 0 180 0 3 -221 c3 -242 3 -245 61 -246 59 -2 60 3 63 246 l3 221 178 3 177 2 0 -239 c0 -237 0 -240 22 -255 31 -22 64 -20 88 4 19 19 20 33 20 255 l0 235 180 0 180 0 0 -153 c0 -173 7 -197 62 -197 63 0 68 15 68 192 l0 158 120 0 120 0 0 -235 0 -236 25 -24 c29 -29 55 -32 84 -7 20 16 21 27 24 257 l2 240 225 0 225 0 3 -817 2 -818 -2660 0 -2660 0 0 820 0 820 230 0 230 0 0 -239z"/>
    <path d="M2594 1700 c-17 -5 -53 -29 -79 -52 -151 -133 -119 -359 65 -454 44 -22 151 -23 201 -2 97 42 163 145 162 253 -1 99 -42 173 -125 226 -42 27 -61 33 -121 35 -40 2 -86 -1 -103 -6z m147 -135 c42 -22 69 -71 69 -125 0 -169 -241 -180 -258 -12 -10 112 93 186 189 137z"/>
  </g>
</svg>