<svg version="1.0" xmlns="http://www.w3.org/2000/svg" width="800.000000" height="800.000000" viewBox="0 0 800.000000 800.000000" preserveAspectRatio="xMidYMid meet">
  <metadata>
    <rdf:RDF xmlns:rdf="http://www.w3.org/1999/02/22-rdf-syntax-ns#" xmlns:rdfs="http://www.w3.org/2000/01/rdf-schema#" xmlns:dc="http://purl.org/dc/elements/1.1/">
      <rdf:Description dc:format="image/svg+xml" dc:Label="1" dc:ContentProducer="001191330110MACRLGPT8B00000" dc:ProduceID="304772604" dc:ReservedCode1="lGJo6HP12TU3fvD0vtTNa951TIuTIkiJUN/+VxqQ8mw=" dc:ContentPropagator="001191330110MACRLGPT8B00000" dc:PropagateID="304772604" dc:ReservedCode2="lGJo6HP12TU3fvD0vtTNa951TIuTIkiJUN/+VxqQ8mw="/>
    </rdf:RDF>
  </metadata>
  <g transform="translate(0.000000,800.000000) scale(0.100000,-0.100000)" fill="#000000" stroke="none">
    <path d="M3501 6104 c-86 -43 -43 38 -589 -1124 -349 -744 -345 -735 -340 -815 5 -87 44 -149 117 -187 l53 -28 344 0 c224 0 344 -4 344 -10 0 -6 -43 -142 -96 -303 -53 -160 -125 -382 -161 -492 -36 -110 -89 -274 -119 -365 -118 -365 -194 -624 -186 -632 6 -6 54 39 118 109 227 248 409 448 674 743 151 168 342 379 425 470 296 324 692 766 737 822 90 111 82 232 -21 320 -57 49 -98 59 -257 65 l-141 5 65 107 c35 58 118 198 184 311 67 113 213 359 326 547 198 332 205 344 199 385 -4 31 -14 51 -37 71 l-30 27 -778 0 -778 0 -53 -26z m1251 -481 c-104 -175 -255 -430 -337 -568 -81 -137 -162 -275 -180 -305 -83 -140 -93 -183 -50 -225 22 -23 31 -25 132 -26 59 0 149 0 199 1 116 2 172 -12 180 -45 7 -28 3 -34 -112 -161 -45 -49 -182 -201 -305 -339 -122 -137 -264 -295 -315 -350 -175 -191 -340 -373 -519 -572 -99 -111 -181 -200 -183 -199 -1 2 66 210 149 462 83 252 166 506 185 564 57 173 54 217 -16 252 -32 16 -73 18 -417 18 -414 0 -413 0 -413 54 0 13 63 158 141 322 78 165 181 385 229 489 311 672 435 931 451 941 17 11 1363 22 1367 12 2 -4 -82 -151 -186 -325z"/>
  </g>
</svg>