<svg version="1.0" xmlns="http://www.w3.org/2000/svg" width="800.000000" height="800.000000" viewBox="0 0 800.000000 800.000000" preserveAspectRatio="xMidYMid meet">
  <metadata>
    <rdf:RDF xmlns:rdf="http://www.w3.org/1999/02/22-rdf-syntax-ns#" xmlns:rdfs="http://www.w3.org/2000/01/rdf-schema#" xmlns:dc="http://purl.org/dc/elements/1.1/">
      <rdf:Description dc:format="image/svg+xml" dc:Label="1" dc:ContentProducer="001191330110MACRLGPT8B00000" dc:ProduceID="305165113" dc:ReservedCode1="GRD/sJBb8ZJ85eTj9NQTBMkRb/Fm761Ov2hC7GZ6uVg=" dc:ContentPropagator="001191330110MACRLGPT8B00000" dc:PropagateID="305165113" dc:ReservedCode2="GRD/sJBb8ZJ85eTj9NQTBMkRb/Fm761Ov2hC7GZ6uVg="/>
    </rdf:RDF>
  </metadata>
  <g transform="translate(0.000000,800.000000) scale(0.100000,-0.100000)" fill="#000000" stroke="none">
    <path d="M3851 5968 c-63 -68 -150 -161 -195 -208 -45 -47 -140 -148 -212 -225 -191 -206 -1034 -1106 -1128 -1205 -45 -47 -115 -121 -156 -165 -41 -44 -103 -110 -137 -147 -53 -55 -63 -72 -63 -101 0 -26 7 -41 26 -56 26 -21 35 -21 655 -21 l629 0 0 -938 c0 -832 2 -940 16 -960 l15 -22 698 0 c663 0 699 1 714 18 15 17 17 101 19 958 l3 939 638 5 639 5 19 24 c41 51 31 68 -140 246 -64 66 -206 217 -316 335 -207 223 -469 504 -585 625 -75 79 -794 848 -883 944 -51 55 -65 64 -100 68 l-42 4 -114 -123z m176 -102 c4 -8 55 -65 113 -127 143 -154 667 -714 925 -989 116 -124 321 -342 455 -485 l244 -260 -575 -3 -576 -2 -21 -23 -22 -23 -2 -935 -3 -934 -565 0 -565 0 -5 942 c-4 754 -8 945 -18 955 -10 10 -136 14 -592 18 l-579 5 42 46 c38 42 355 380 1007 1074 135 144 348 372 475 508 126 136 235 247 242 247 7 0 16 -6 20 -14z"/>
  </g>
</svg>