<svg version="1.0" xmlns="http://www.w3.org/2000/svg" width="800.000000" height="800.000000" viewBox="0 0 800.000000 800.000000" preserveAspectRatio="xMidYMid meet">
  <metadata>
    <rdf:RDF xmlns:rdf="http://www.w3.org/1999/02/22-rdf-syntax-ns#" xmlns:rdfs="http://www.w3.org/2000/01/rdf-schema#" xmlns:dc="http://purl.org/dc/elements/1.1/">
      <rdf:Description dc:format="image/svg+xml" dc:Label="1" dc:ContentProducer="001191330110MACRLGPT8B00000" dc:ProduceID="305165114" dc:ReservedCode1="eKBGRXwTLOW8XD+nNxLLY4C/UNpIKr7GvMmvNJ8dkb4=" dc:ContentPropagator="001191330110MACRLGPT8B00000" dc:PropagateID="305165114" dc:ReservedCode2="eKBGRXwTLOW8XD+nNxLLY4C/UNpIKr7GvMmvNJ8dkb4="/>
    </rdf:RDF>
  </metadata>
  <g transform="translate(0.000000,800.000000) scale(0.100000,-0.100000)" fill="#000000" stroke="none">
    <path d="M3118 5731 l-33 -29 -5 -734 -5 -733 -433 -5 -434 -5 -29 -33 c-23 -26 -29 -42 -29 -78 0 -57 -98 47 996 -1052 l820 -825 44 6 c41 5 71 34 934 902 490 494 896 907 903 919 28 49 5 124 -47 151 -25 13 -93 15 -450 15 l-420 0 0 730 0 730 -29 32 -29 33 -861 3 -860 2 -33 -29z m1650 -872 l2 -736 25 -27 24 -26 401 0 c220 0 400 -3 400 -8 0 -4 -364 -371 -808 -815 l-808 -808 -800 801 c-439 440 -802 808 -807 815 -7 13 45 15 391 15 l399 0 24 26 24 26 3 739 2 739 763 -2 762 -3 3 -736z"/>
  </g>
</svg>