<svg version="1.0" xmlns="http://www.w3.org/2000/svg" width="800.000000" height="800.000000" viewBox="0 0 800.000000 800.000000" preserveAspectRatio="xMidYMid meet">
  <metadata>
    <rdf:RDF xmlns:rdf="http://www.w3.org/1999/02/22-rdf-syntax-ns#" xmlns:rdfs="http://www.w3.org/2000/01/rdf-schema#" xmlns:dc="http://purl.org/dc/elements/1.1/">
      <rdf:Description dc:format="image/svg+xml" dc:Label="1" dc:ContentProducer="001191330110MACRLGPT8B00000" dc:ProduceID="305166567" dc:ReservedCode1="lh+WpErhTQ+JgQcHjOj9TiiD+AstZB17pDDpYYiOzwk=" dc:ContentPropagator="001191330110MACRLGPT8B00000" dc:PropagateID="305166567" dc:ReservedCode2="lh+WpErhTQ+JgQcHjOj9TiiD+AstZB17pDDpYYiOzwk="/>
    </rdf:RDF>
  </metadata>
  <g transform="translate(174.593453,639.248393) scale(0.057918,-0.057918)" fill="#000000" stroke="none">
    <path d="M438 7748 c-47 -12 -113 -69 -141 -122 l-22 -41 1 -3460 0 -3460 21 -40 c24 -46 53 -75 103 -101 34 -18 136 -19 3490 -19 l3456 0 49 26 c35 18 59 39 80 74 l30 48 3 2901 c2 2598 1 2905 -13 2942 -17 45 17 11 -749 754 -263 256 -492 474 -510 485 -31 20 -49 20 -2896 22 -1841 0 -2878 -2 -2902 -9z m1312 -1333 c0 -1124 1 -1157 19 -1194 26 -49 81 -97 128 -111 27 -8 529 -10 1725 -8 l1686 3 43 30 c27 19 54 50 71 84 l28 53 0 1149 0 1149 353 0 352 -1 135 -132 c75 -73 295 -287 490 -476 195 -190 399 -388 453 -440 l97 -95 0 -2856 c0 -2208 -3 -2859 -12 -2868 -9 -9 -168 -12 -655 -12 l-643 0 -2 1443 -3 1444 -30 48 c-21 35 -45 56 -80 74 l-49 26 -1976 0 c-1909 0 -1976 -1 -2010 -19 -49 -26 -79 -55 -101 -98 -18 -36 -19 -81 -19 -1478 l0 -1440 -642 2 -643 3 -3 3425 c-1 1884 0 3431 3 3438 3 9 142 12 645 12 l640 0 0 -1155z m3518 13 l-3 -1143 -1645 -3 c-905 -1 -1655 0 -1667 3 l-23 5 0 1140 0 1140 1670 0 1670 0 -2 -1142z m562 -4313 l0 -1425 -1950 0 -1950 0 0 1425 0 1425 1950 0 1950 0 0 -1425z"/>
    <path d="M2743 2733 c-32 -6 -73 -59 -73 -93 0 -16 11 -41 24 -57 l24 -28 1077 -3 1076 -2 30 29 c47 47 34 117 -26 146 -29 13 -153 15 -1072 14 -571 -1 -1048 -4 -1060 -6z"/>
    <path d="M2723 1675 c-71 -31 -73 -124 -3 -160 25 -13 162 -15 1080 -15 918 0 1055 2 1080 15 71 37 68 130 -5 161 -50 21 -2104 20 -2152 -1z"/>
  </g>
</svg>