<svg version="1.0" xmlns="http://www.w3.org/2000/svg" width="800.000000" height="800.000000" viewBox="0 0 800.000000 800.000000" preserveAspectRatio="xMidYMid meet">
  <metadata>
    <rdf:RDF xmlns:rdf="http://www.w3.org/1999/02/22-rdf-syntax-ns#" xmlns:rdfs="http://www.w3.org/2000/01/rdf-schema#" xmlns:dc="http://purl.org/dc/elements/1.1/">
      <rdf:Description dc:format="image/svg+xml" dc:Label="1" dc:ContentProducer="001191330110MACRLGPT8B00000" dc:ProduceID="304770329" dc:ReservedCode1="p1cHJX/DFwJmmNU7jD7wDP4/Wlzu6ror9gvxzxx4HS8=" dc:ContentPropagator="001191330110MACRLGPT8B00000" dc:PropagateID="304770329" dc:ReservedCode2="p1cHJX/DFwJmmNU7jD7wDP4/Wlzu6ror9gvxzxx4HS8="/>
    </rdf:RDF>
  </metadata>
  <g transform="translate(0.000000,800.000000) scale(0.100000,-0.100000)" fill="#000000" stroke="none">
    <path d="M3367 6364 c-49 -26 -52 -50 -47 -293 6 -280 -8 -261 196 -261 l144 0 0 -105 0 -104 -37 -6 c-156 -27 -379 -102 -528 -179 -44 -22 -83 -42 -86 -44 -4 -1 -57 68 -118 155 -157 223 -158 223 -189 223 -19 0 -68 -33 -172 -116 -80 -64 -191 -152 -246 -195 -100 -77 -114 -93 -114 -127 0 -18 130 -198 157 -219 31 -24 79 -16 107 18 36 42 33 71 -15 135 -23 30 -40 56 -38 58 76 63 289 226 296 226 9 -1 173 -235 173 -249 0 -5 -35 -35 -77 -66 -105 -78 -323 -299 -405 -410 -208 -279 -344 -638 -379 -1000 -17 -181 -21 -275 -11 -275 5 0 12 -44 15 -97 24 -361 186 -760 437 -1071 179 -223 391 -393 655 -524 423 -212 875 -269 1350 -172 163 33 303 82 470 164 223 109 374 220 552 404 257 265 422 563 507 916 44 184 46 197 52 425 7 219 -7 358 -56 545 -72 283 -183 507 -362 738 -33 42 -46 67 -40 75 5 7 68 90 140 184 146 191 156 215 105 258 -16 13 -113 90 -218 170 -104 81 -201 157 -215 170 -36 33 -68 47 -90 40 -26 -8 -159 -187 -166 -223 -9 -44 36 -92 86 -92 39 0 58 15 101 80 l16 24 151 -119 c84 -65 152 -122 152 -127 0 -4 -33 -49 -72 -100 -40 -51 -82 -106 -94 -122 l-21 -29 -74 64 c-276 241 -580 398 -910 470 -52 11 -98 24 -102 28 -4 4 -6 50 -5 102 l3 94 148 5 c148 5 149 5 173 33 24 28 24 30 24 250 0 239 -2 248 -57 276 -15 8 -201 11 -630 11 -527 -1 -612 -3 -636 -16z m1151 -270 l-3 -116 -147 -1 c-127 -2 -150 -5 -165 -20 -15 -15 -19 -42 -23 -174 l-5 -156 -172 -1 -173 -1 0 151 c0 201 8 193 -195 196 l-150 3 -3 118 -3 117 521 0 521 0 -3 -116z m-183 -659 c211 -35 507 -155 695 -280 125 -84 207 -154 322 -274 258 -269 424 -601 484 -966 26 -160 24 -441 -4 -595 -63 -341 -214 -656 -437 -912 -396 -456 -1040 -693 -1649 -607 -275 38 -552 145 -796 307 -142 95 -361 309 -463 452 -139 197 -259 481 -308 729 -27 136 -36 397 -20 541 56 491 316 949 708 1248 420 320 939 446 1468 357z"/>
    <path d="M3860 5139 c-372 -31 -724 -203 -981 -477 -216 -231 -349 -506 -395 -817 -22 -146 -15 -410 14 -540 61 -269 176 -493 360 -700 211 -239 501 -405 831 -476 149 -32 410 -37 566 -11 329 56 599 195 830 427 229 228 365 483 427 799 26 132 30 405 9 521 -25 137 -74 291 -126 401 -236 499 -708 826 -1260 873 -132 12 -138 12 -275 0z m60 -263 c0 -89 3 -107 21 -130 16 -21 29 -26 64 -26 35 0 48 5 64 26 18 23 21 41 21 130 0 83 3 104 14 104 8 0 65 -9 128 -19 284 -49 538 -181 743 -386 155 -155 259 -321 328 -525 36 -105 74 -308 63 -335 -4 -12 -24 -14 -108 -9 -115 6 -144 -3 -166 -50 -16 -32 -9 -69 18 -96 18 -18 34 -20 141 -20 l121 0 -7 -62 c-24 -220 -110 -446 -240 -633 -66 -96 -264 -290 -355 -350 -95 -62 -274 -147 -365 -173 -69 -20 -188 -45 -272 -56 l-43 -6 0 116 c0 114 0 116 -29 145 -31 31 -59 36 -94 17 -42 -22 -46 -38 -47 -161 l0 -118 -47 6 c-415 55 -745 244 -980 562 -136 184 -240 456 -255 668 l-3 40 120 3 c106 2 122 5 142 24 16 15 23 33 23 60 0 73 -52 95 -196 84 l-84 -6 0 44 c0 24 7 81 16 127 52 273 174 502 378 705 217 216 462 342 761 389 137 22 125 31 125 -89z"/>
    <path d="M3959 4387 c-35 -27 -39 -53 -39 -259 l0 -204 -47 -23 c-76 -37 -117 -75 -153 -143 -31 -57 -34 -71 -35 -148 0 -71 4 -94 26 -140 34 -71 89 -126 158 -159 81 -38 193 -37 273 2 145 71 216 232 169 385 -26 85 -85 156 -166 198 l-55 29 0 207 0 206 -26 31 c-28 33 -75 41 -105 18z m132 -651 c128 -87 67 -286 -87 -286 -161 0 -218 207 -80 291 46 28 122 25 167 -5z"/>
  </g>
</svg>