<svg version="1.0" xmlns="http://www.w3.org/2000/svg" width="800.000000" height="800.000000" viewBox="0 0 800.000000 800.000000" preserveAspectRatio="xMidYMid meet">
  <metadata>
    <rdf:RDF xmlns:rdf="http://www.w3.org/1999/02/22-rdf-syntax-ns#" xmlns:rdfs="http://www.w3.org/2000/01/rdf-schema#" xmlns:dc="http://purl.org/dc/elements/1.1/">
      <rdf:Description dc:format="image/svg+xml" dc:Label="1" dc:ContentProducer="001191330110MACRLGPT8B00000" dc:ProduceID="304770333" dc:ReservedCode1="l/yT6w5T441aG7Z5Gy16GHj9pOr3fKAxz3z/cT5+Bg4=" dc:ContentPropagator="001191330110MACRLGPT8B00000" dc:PropagateID="304770333" dc:ReservedCode2="l/yT6w5T441aG7Z5Gy16GHj9pOr3fKAxz3z/cT5+Bg4="/>
    </rdf:RDF>
  </metadata>
  <g transform="translate(0.000000,800.000000) scale(0.100000,-0.100000)" fill="#000000" stroke="none">
    <path d="M2740 6159 c-125 -21 -264 -119 -329 -233 -89 -155 -84 -364 15 -677 107 -338 272 -569 641 -898 98 -87 133 -147 133 -228 0 -99 -35 -147 -249 -337 -316 -280 -501 -589 -582 -973 -18 -84 -23 -141 -24 -258 l0 -150 37 -78 c70 -146 199 -251 345 -282 101 -22 2145 -22 2246 0 198 42 356 210 389 414 28 175 -54 539 -173 776 -121 238 -219 355 -541 647 -113 103 -148 161 -148 245 0 76 29 125 124 213 191 176 373 368 433 456 222 326 354 830 274 1048 -54 149 -161 253 -311 303 -52 17 -119 18 -1140 19 -605 1 -1109 -2 -1140 -7z m2233 -159 c88 -27 163 -95 203 -182 24 -53 28 -75 28 -143 -2 -225 -119 -577 -257 -772 -91 -129 -178 -224 -329 -359 -164 -147 -196 -182 -235 -262 -25 -51 -28 -68 -28 -157 0 -83 4 -108 23 -149 36 -78 98 -151 217 -256 272 -239 404 -409 505 -653 69 -164 129 -457 116 -566 -18 -152 -134 -280 -280 -311 -35 -7 -396 -10 -1116 -8 l-1065 3 -57 27 c-70 32 -138 99 -174 170 -23 43 -28 70 -32 143 -8 177 55 441 154 637 98 197 189 304 516 613 89 84 123 124 146 170 90 181 55 336 -111 493 -367 346 -446 442 -553 667 -100 210 -166 505 -142 634 24 132 132 246 258 272 19 4 510 7 1091 8 1034 1 1058 1 1122 -19z"/>
    <path d="M3205 5211 c-106 -26 -143 -117 -91 -226 40 -85 138 -187 364 -378 65 -55 100 -93 117 -128 l25 -48 0 -479 c0 -542 0 -543 -74 -616 -23 -23 -111 -88 -196 -145 -273 -184 -420 -314 -462 -407 -30 -68 -23 -166 15 -216 60 -78 -1 -73 952 -73 832 0 851 0 883 20 18 11 47 40 63 64 60 92 31 209 -83 328 -74 77 -239 203 -393 299 -60 38 -136 94 -167 124 -90 88 -90 82 -86 632 l3 463 25 50 c20 39 55 75 165 167 163 137 280 257 317 325 61 111 27 216 -76 242 -51 12 -1249 14 -1301 2z m1255 -159 c0 -22 -179 -198 -320 -314 -154 -128 -191 -182 -210 -314 -12 -88 -13 -900 0 -977 24 -149 89 -222 349 -396 219 -148 322 -229 367 -290 37 -50 45 -104 18 -115 -9 -3 -377 -6 -819 -6 -717 0 -805 2 -819 16 -24 23 -20 48 17 95 44 59 170 159 383 305 208 142 262 193 307 284 l32 65 3 520 c3 578 4 571 -64 671 -19 28 -73 84 -122 124 -202 171 -332 300 -332 331 0 4 8 10 18 12 9 3 281 5 605 6 560 1 587 0 587 -17z"/>
  </g>
</svg>